# xmcd
#
# Track frame offsets:
#	150
#	15733
#	33915
#	51388
#	66906
#	79237
#	98867
#	116788
#	130694
#	144954
#	158675
#	177965
#	194748
#	210529
#	228615
#	239749
#	253421
#	268139
#	282728
#	299434
#
# Disc length: 4185 seconds
# Revision: 0
# Processed by: cddbd v1.5.2PL0 Copyright (c) Steve Scherf et al.
# Submitted via: dBpowerAMP V12.0
#
DISCID=40105714
DTITLE=Various Artist - Country Radio December 2010
DYEAR=2010
DGENRE=Country
TTITLE0=Willie Mack - Lay It All On Me
TTITLE1=Kenny Chesney - Somewhere With You
TTITLE2=Codie Prevost - Standing Still
TTITLE3=Ambush - My Little Girl
TTITLE4=Trailer Choir - Shakin That Tailgate
TTITLE5=Dean Brody - Trail In Life
TTITLE6=Chad Klinger - I'm Gonna Be There
TTITLE7=Blaine Larsen - Leavin
TTITLE8=Emerson Drive - When I See You Again
TTITLE9=Josh Kelley - Georgia Clay
TTITLE10=Sara Evans - A Little Bit Stornger
TTITLE11=Paul Brandt - The Highway Patrol
TTITLE12=Walker Hayes - Pants
TTITLE13=Joey and Ray - This Song's For You
TTITLE14=Katie Armiger - Best Song Ever
TTITLE15=Donny Parenteau - Turn It Up
TTITLE16=Brad Johner - Trouble With Love
TTITLE17=Gretchen Wilson - I Got Your Country Right Here
TTITLE18=Aaron Pritchett - Light It Up
TTITLE19=Jaydee Bixby - Can't Ask For More
EXTD=
EXTT0=
EXTT1=
EXTT2=
EXTT3=
EXTT4=
EXTT5=
EXTT6=
EXTT7=
EXTT8=
EXTT9=
EXTT10=
EXTT11=
EXTT12=
EXTT13=
EXTT14=
EXTT15=
EXTT16=
EXTT17=
EXTT18=
EXTT19=
PLAYORDER=
